# Blender 3.3.1
# www.blender.org
mtllib Rock_model_test_0.mtl
o Rock
v -0.341942 0.800926 -1.284541
v 1.000000 0.000000 -1.000000
v 0.928672 0.968380 -0.208254
v 1.000000 0.000000 1.000000
v -0.742689 0.925465 0.186478
v -1.000000 0.000000 -1.000000
v -0.273995 1.036346 1.179966
v -1.000000 0.000000 1.000000
v 0.317068 1.099477 0.670898
v 0.318007 1.174758 -0.756906
vn 0.4166 0.4098 -0.8115
vn -0.1847 0.9814 0.0516
vn 0.5223 0.5255 0.6716
vn -0.0000 -0.1711 0.9853
vn -0.0000 -1.0000 -0.0000
vn -0.1427 0.9888 -0.0430
vn -0.0000 -0.3348 -0.9423
vn -0.7892 0.5554 -0.2620
vn 0.6659 0.5010 -0.5528
vn 0.9973 0.0735 -0.0000
vn 0.7136 0.5666 0.4120
vn -0.3729 0.9105 -0.1787
vn -0.8009 0.5052 0.3214
vn -0.9635 0.2679 -0.0000
vn 0.2785 0.9591 0.0508
vt 0.839875 0.481968
vt 0.608631 0.357998
vt 0.704877 0.357998
vt 0.000000 0.000000
vt 1.000000 0.734775
vt 0.230151 0.376778
vt 0.047225 0.525934
vt 0.389879 0.344582
vt 0.806789 0.357998
vt 0.000000 0.376778
vt 0.230151 0.753555
vt 0.592703 0.093543
vt 0.567930 0.630794
vt 0.376778 0.000000
vt 1.000000 0.357998
vt 0.413342 0.391962
vt 0.608631 0.598004
vt 0.407006 0.000000
vt 0.608631 0.824198
vt 0.806789 0.734775
vt 0.376778 0.376778
vt 0.376778 0.766881
vt 0.613322 0.486654
vt 0.014131 0.691556
vt 0.376778 0.144280
vt 0.806789 0.606295
vt 0.000000 0.422574
vt 0.539187 0.357998
s 0
usemtl Material
f 1/1/1 10/26/1 2/5/1
f 5/12/2 9/25/2 10/28/2
f 7/17/3 4/9/3 9/23/3
f 8/20/4 4/9/4 7/17/4
f 6/14/5 2/4/5 4/10/5 8/21/5
f 5/12/6 7/18/6 9/25/6
f 2/5/7 6/15/7 1/1/7
f 1/2/8 6/16/8 5/13/8
f 10/27/9 3/7/9 2/6/9
f 4/11/10 2/6/10 3/7/10
f 3/7/11 9/24/11 4/11/11
f 5/12/12 10/28/12 1/3/12
f 7/19/13 5/13/13 8/22/13
f 6/16/14 8/22/14 5/13/14
f 10/28/15 9/25/15 3/8/15
